:SAMPLES-PER-SECOND 30
:FULLY-SPECIFIED
:DEGREES
715
root  -5.76553 36.4748 3.61931 20.8504 -83.7768 -32.1919
RightUpLeg  -8.3286 0.175312 7.67925
RightLeg  57.5757 -9.45833 -16.0501
RightFoot  -13.8253 0.136901 10.4577
RightToes  6.35927e-011 1.30204e-014 -6.03759e-014
Spine  25.2872 -1.67659 3.33446
Spine1  -21.8008 -0.728754 1.54075
HEad  -66.6507 1.31756 -8.59451
LeftShoulder1  0.919453 -1.21665 -12.4111
LeftArm  -42.8901 31.7892 -21.3339
LeftForeArm  155.316 -66.9056 -155.444
LeftHand  1.53195 8.33151 53.2616
RightShoulder  0.994305 0.835859 16.2869
RightArm  -42.276 -44.3859 29.8567
RightForeArm  156.087 63.2509 159.13
RightHand  -3.83609 2.07696 -55.0692
LeftUpLeg  -22.4552 -2.17413 2.44444
LeftLeg  77.3116 1.02856 6.94651
LeftFoot  11.2764 2.36931 -12.1132
LeftToes  7.40077e-010 7.2695e-011 -6.03601e-011
716
root  -5.92035 36.5628 3.64832 12.6851 -84.8063 -25.0986
RightUpLeg  -8.263 1.72318 7.0009
RightLeg  59.3821 -9.38479 -17.0493
RightFoot  -9.43715 -0.237662 10.1968
RightToes  6.35927e-011 1.30204e-014 -6.03759e-014
Spine  26.6639 -1.38296 2.18294
Spine1  -22.9674 -0.715698 1.03144
HEad  -66.6541 1.3793 -8.95114
LeftShoulder1  0.915345 -0.970132 -13.4654
LeftArm  -55.5573 34.5049 -23.2912
LeftForeArm  112.987 -69.2531 -147.289
LeftHand  3.85042 11.3924 65.0809
RightShoulder  1.04295 0.988061 16.6164
RightArm  -49.5444 -44.6779 32.1515
RightForeArm  133.917 62.5378 157.469
RightHand  -4.71867 2.49359 -63.1759
LeftUpLeg  -21.9183 -3.22663 1.25741
LeftLeg  76.9277 0.951518 6.26032
LeftFoot  0.444514 1.25905 -12.4276
LeftToes  7.40077e-010 7.2695e-011 -6.03601e-011
717
root  -6.1534 36.7519 3.75256 1.34229 -85.0726 -14.3785
RightUpLeg  -8.97806 0.709177 5.11062
RightLeg  61.1108 -8.37779 -16.4911
RightFoot  -4.59997 -0.693274 11.1607
RightToes  6.35927e-011 1.30204e-014 -6.03759e-014
Spine  27.1654 -1.23664 0.89506
Spine1  -24.0931 -0.835052 1.37939
HEad  -66.1856 1.68408 -8.81682
LeftShoulder1  0.976647 -0.999729 -14.8129
LeftArm  -54.3106 36.6136 -25.0876
LeftForeArm  111.585 -65.9154 -151.64
LeftHand  4.19833 11.6851 66.7845
RightShoulder  1.11479 1.20998 17.0882
RightArm  -44.7813 -45.3136 33.0929
RightForeArm  145.962 57.4733 162.267
RightHand  -4.19833 1.84916 -60.7197
LeftUpLeg  -19.3644 -5.49513 -0.063346
LeftLeg  71.8059 1.2658 5.35043
LeftFoot  -4.39467 0.971279 -15.2817
LeftToes  7.40077e-010 7.2695e-011 -6.03601e-011
718
root  -6.44646 36.9594 3.95378 1.35571 -85.7331 -14.4911
RightUpLeg  -10.6002 -1.16019 3.56146
RightLeg  62.8458 -7.56863 -16.1742
RightFoot  0.696042 -1.30048 12.3012
RightToes  6.35927e-011 1.30204e-014 -6.03759e-014
Spine  25.7819 -0.921311 1.47367
Spine1  -23.3376 -0.541841 -0.0908411
HEad  -65.7541 1.58414 -8.11467
LeftShoulder1  1.05426 -1.23922 -15.4072
LeftArm  -38.6633 35.66 -26.0074
LeftForeArm  147.987 -57.5306 -162.469
LeftHand  1.94294 8.96292 55.8248
RightShoulder  1.12614 1.24344 17.1646
RightArm  -30.3443 -45.0331 33.4297
RightForeArm  179.614 49.9672 168.629
RightHand  -2.81808 0.974814 -48.7446
LeftUpLeg  -15.1903 -6.90068 -0.803274
LeftLeg  64.4092 1.86689 4.89932
LeftFoot  -4.19699 1.05071 -16.3975
LeftToes  7.40077e-010 7.2695e-011 -6.03601e-011
719
root  -6.70933 37.0024 4.21055 -10.9834 -87.6653 -2.12976
RightUpLeg  -13.7524 -1.65406 1.80067
RightLeg  65.7734 -6.38905 -15.7917
RightFoot  9.73467 -2.17657 12.1061
RightToes  6.35927e-011 1.30204e-014 -6.03759e-014
Spine  23.9378 0.117758 2.4164
Spine1  -21.446 0.350767 -3.13749
HEad  -65.6277 1.10951 -7.68313
LeftShoulder1  1.17202 -1.70562 -15.7076
LeftArm  -17.6713 31.7881 -26.8146
LeftForeArm  -161.439 -49.1997 -170.176
LeftHand  -0.247 4.7403 43.7546
RightShoulder  1.08523 1.12139 16.8844
RightArm  -13.6444 -44.3296 34.1536
RightForeArm  -142.171 43.5484 173.018
RightHand  -2.78423 2.18274 -41.2934
LeftUpLeg  -10.2814 -6.28306 -2.34698
LeftLeg  58.0144 3.37533 6.35351
LeftFoot  -7.03238 0.598733 -14.1783
LeftToes  7.40077e-010 7.2695e-011 -6.03601e-011
720
root  -6.86456 36.6707 4.41448 -70.04 -88.5126 56.9282
RightUpLeg  -18.5116 -1.28314 -1.17044
RightLeg  70.6092 -4.25494 -14.0213
RightFoot  20.1447 -2.67544 10.0086
RightToes  6.35927e-011 1.30204e-014 -6.03759e-014
Spine  23.4839 1.27455 1.06526
Spine1  -20.7392 0.968748 -4.75677
HEad  -65.6405 1.03113 -7.93038
LeftShoulder1  1.22966 -1.9869 -15.5991
LeftArm  -3.15315 30.2352 -25.6364
LeftForeArm  -116.345 -43.4176 -174.004
LeftHand  -1.86776 0.426288 41.6055
RightShoulder  1.07083 1.11489 16.5811
RightArm  -4.03014 -45.4131 31.4948
RightForeArm  -114.846 40.9201 174.688
RightHand  -4.10103 5.54621 -41.8815
LeftUpLeg  -6.96848 -5.12465 -5.37157
LeftLeg  55.1319 5.5098 9.0053
LeftFoot  -14.5342 -0.219422 -10.9378
LeftToes  7.40077e-010 7.2695e-011 -6.03601e-011
721
root  -6.85677 36.1866 4.49638 -93.4877 -86.4681 80.5397
RightUpLeg  -23.3931 -1.65603 -4.40525
RightLeg  75.9481 -2.05476 -10.7032
RightFoot  23.5778 -1.98346 6.74366
RightToes  6.35927e-011 1.30204e-014 -6.03759e-014
Spine  24.4386 1.60808 -2.14568
Spine1  -21.5706 0.560426 -4.21589
HEad  -65.9218 1.46196 -8.3308
LeftShoulder1  1.10106 -1.68809 -14.2713
LeftArm  -4.9877 31.1307 -20.212
LeftForeArm  -106.286 -41.3259 -174.682
LeftHand  -2.51644 -1.06873 44.1124
RightShoulder  1.09803 1.29063 16.2669
RightArm  -7.66911 -46.4324 24.4793
RightForeArm  -124.108 42.9744 173.77
RightHand  -3.49063 3.76371 -42.6824
LeftUpLeg  -6.69814 -4.74533 -8.23465
LeftLeg  55.482 6.35528 10.3853
LeftFoot  -19.6242 -0.5464 -9.0193
LeftToes  7.40077e-010 7.2695e-011 -6.03601e-011
722
root  -6.70287 35.8659 4.52408 -83.9995 -85.5191 71.4047
RightUpLeg  -26.9847 -2.44354 -5.66692
RightLeg  79.7456 -0.815664 -7.52594
RightFoot  17.844 -0.67778 3.02173
RightToes  6.35927e-011 1.30204e-014 -6.03759e-014
Spine  25.9582 1.07236 -3.82492
Spine1  -22.4364 -0.268187 -3.27215
HEad  -66.5031 1.66324 -8.4771
LeftShoulder1  0.902096 -1.10478 -12.5026
LeftArm  -20.6744 34.0329 -14.1868
LeftForeArm  -143.612 -47.755 -171.356
LeftHand  0.655602 6.77114 48.8894
RightShoulder  1.09985 1.34348 16.0327
RightArm  -21.0773 -48.1406 19.6221
RightForeArm  -164.98 50.3621 169.419
RightHand  -2.24029 0.0569246 -45.364
LeftUpLeg  -8.74313 -4.22331 -8.78264
LeftLeg  57.5946 5.20708 9.3432
LeftFoot  -18.7212 -0.445256 -8.64429
LeftToes  7.40077e-010 7.2695e-011 -6.03601e-011
723
root  -6.45743 35.7287 4.55285 -82.0001 -85.8302 69.7848
RightUpLeg  -28.8491 -2.13713 -4.93761
RightLeg  80.2603 -0.433133 -5.2529
RightFoot  10.4059 -0.252448 1.80823
RightToes  6.35927e-011 1.30204e-014 -6.03759e-014
Spine  27.6971 0.537677 -3.44559
Spine1  -22.5509 -0.640033 -2.76681
HEad  -66.7539 1.42491 -8.61635
LeftShoulder1  0.818538 -0.743881 -12.167
LeftArm  -38.0508 38.8347 -14.9014
LeftForeArm  161.294 -58.6707 -163.047
LeftHand  2.73077 10.6189 55.1435
RightShoulder  1.07446 1.18238 16.2986
RightArm  -37.4951 -49.7486 23.6666
RightForeArm  151.504 56.7945 163.373
RightHand  -2.53589 -0.0203067 -51.6093
LeftUpLeg  -11.6542 -2.45611 -7.54629
LeftLeg  60.3789 3.69281 7.65439
LeftFoot  -15.2856 -0.218489 -8.96218
LeftToes  7.40077e-010 7.2695e-011 -6.03601e-011
724
root  -6.1108 35.6518 4.548 -81.8466 -86.2586 70.1622
RightUpLeg  -29.4181 -0.971292 -3.85985
RightLeg  77.8816 -0.431286 -3.91339
RightFoot  7.93523 -0.883348 5.43486
RightToes  6.35927e-011 1.30204e-014 -6.03759e-014
Spine  29.3426 0.394176 -3.09779
Spine1  -21.6917 -0.611215 -1.85576
HEad  -66.3876 1.23255 -8.91716
LeftShoulder1  0.866886 -0.740344 -13.4189
LeftArm  -48.1903 39.0222 -21.049
LeftForeArm  127.496 -61.9027 -157.575
LeftHand  3.79825 12.0633 58.8513
RightShoulder  1.11234 1.24098 16.8572
RightArm  -45.8242 -47.944 31.4317
RightForeArm  135.076 55.2032 162.778
RightHand  -2.87994 -0.175465 -58.5579
LeftUpLeg  -14.9849 -0.565276 -6.43943
LeftLeg  63.2786 2.97613 7.14533
LeftFoot  -12.7527 -0.0415744 -9.28675
LeftToes  7.40077e-010 7.2695e-011 -6.03601e-011
